<?xml version="1.0" encoding="UTF-8"?><svg xmlns="http://www.w3.org/2000/svg" viewBox="0 0 86.57 87.21"><defs><style>.d{fill:#f15a29;}.e{fill:#be1e2d;}.f{fill:#fff;font-size:8.49px;}.f,.g{font-family:MyriadPro-Black, Myriad Pro;}.g{fill:#ef4136;font-size:7.33px;}</style></defs><g id="a"/><g id="b"><g id="c"><path class="d" d="M26.09,46.12H9.57c.64,6.34,3.06,12.37,6.99,17.4,5.29-4.37,8.7-10.59,9.53-17.4h0Z"/><path class="d" d="M16.56,21.98c-3.92,5.01-6.34,11.03-6.99,17.36H26.12c-.84-6.8-4.26-13.02-9.56-17.36h0Z"/><path class="e" d="M65.36,16.99c-5.25-4.51-11.76-7.3-18.65-8v30.35h6.99c.84-8.68,5.03-16.69,11.67-22.35h0Z"/><path class="e" d="M32.9,39.34h7.02V8.99c-6.9,.7-13.43,3.51-18.68,8.04,6.65,5.63,10.84,13.64,11.67,22.31Z"/><path class="d" d="M70.07,63.52c3.93-5.02,6.35-11.05,6.99-17.4h-16.51c.83,6.8,4.24,13.03,9.53,17.4h0Z"/><path class="d" d="M77.06,39.34c-.64-6.33-3.06-12.35-6.99-17.36-5.28,4.36-8.69,10.57-9.53,17.36h16.51Z"/><path class="e" d="M53.69,46.12h-6.99v30.35c6.89-.7,13.4-3.49,18.65-8-6.64-5.66-10.82-13.67-11.67-22.35h0Z"/><path class="e" d="M21.27,68.47c5.25,4.51,11.76,7.3,18.65,8v-30.35h-6.99c-.84,8.68-5.03,16.69-11.67,22.35h0Z"/><text class="g" transform="translate(25.63 10.58) rotate(-25.24)"><tspan x="0" y="0">B</tspan></text><text class="g" transform="translate(29.62 8.68) rotate(-18.03)"><tspan x="0" y="0">A</tspan></text><text class="g" transform="translate(34.21 7.21) rotate(-11.29)"><tspan x="0" y="0">L</tspan></text><text class="g" transform="translate(37.88 6.47) rotate(-5.43)"><tspan x="0" y="0">L</tspan></text><text class="g" transform="translate(41.09 6.04) rotate(1.68)"><tspan x="0" y="0">W</tspan></text><text class="g" transform="translate(47.48 6.25) rotate(10.62)"><tspan x="0" y="0">O</tspan></text><text class="g" transform="translate(52.59 7.23) rotate(18.17)"><tspan x="0" y="0">R</tspan></text><text class="g" transform="translate(56.75 8.58) rotate(25.2)"><tspan x="0" y="0">K</tspan></text><text class="f" transform="translate(2.06 52.87) rotate(72.72)"><tspan x="0" y="0">b</tspan></text><text class="f" transform="translate(3.76 58.21) rotate(65.45)"><tspan x="0" y="0">a</tspan></text><text class="f" transform="translate(5.91 62.8) rotate(59.15)"><tspan x="0" y="0">s</tspan></text><text class="f" transform="translate(8.06 66.41) rotate(52.78)"><tspan x="0" y="0">k</tspan></text><text class="f" transform="translate(11.19 70.5) rotate(46.07)"><tspan x="0" y="0">e</tspan></text><text class="f" transform="translate(14.65 74.01) rotate(40.34)"><tspan x="0" y="0">t</tspan></text><text class="f" transform="translate(17.42 76.4) rotate(34.13)"><tspan x="0" y="0">b</tspan></text><text class="f" transform="translate(22.08 79.51) rotate(26.91)"><tspan x="0" y="0">a</tspan></text><text class="f" transform="translate(26.56 81.71) rotate(21.61)"><tspan x="0" y="0">l</tspan></text><text class="f" transform="translate(29.09 82.7) rotate(17.9)"><tspan x="0" y="0">l</tspan></text><text class="f" transform="translate(31.62 83.5) rotate(14.83)"><tspan x="0" y="0"> </tspan></text><text class="f" transform="translate(33.53 84.06) rotate(10.17)"><tspan x="0" y="0">e</tspan></text><text class="f" transform="translate(38.29 84.9) rotate(3.62)"><tspan x="0" y="0">x</tspan></text><text class="f" transform="translate(43.08 85.19) rotate(-2.72)"><tspan x="0" y="0">e</tspan></text><text class="f" transform="translate(48.01 84.91) rotate(-8.6)"><tspan x="0" y="0">r</tspan></text><text class="f" transform="translate(51.67 84.35) rotate(-13.89)"><tspan x="0" y="0">c</tspan></text><text class="f" transform="translate(55.65 83.32) rotate(-18.56)"><tspan x="0" y="0">i</tspan></text><text class="f" transform="translate(58.3 82.45) rotate(-23.28)"><tspan x="0" y="0">s</tspan></text><text class="f" transform="translate(62.15 80.79) rotate(-29.47)"><tspan x="0" y="0">e</tspan></text><text class="f" transform="translate(66.35 78.34) rotate(-34.09)"><tspan x="0" y="0"> </tspan></text><text class="f" transform="translate(67.95 77.28) rotate(-37.73)"><tspan x="0" y="0">t</tspan></text><text class="f" transform="translate(70.75 75.1) rotate(-42.61)"><tspan x="0" y="0">r</tspan></text><text class="f" transform="translate(73.47 72.62) rotate(-48.37)"><tspan x="0" y="0">a</tspan></text><text class="f" transform="translate(76.78 68.84) rotate(-54.58)"><tspan x="0" y="0">c</tspan></text><text class="f" transform="translate(79.24 65.39) rotate(-61.01)"><tspan x="0" y="0">k</tspan></text><text class="f" transform="translate(81.71 60.87) rotate(-67.77)"><tspan x="0" y="0">e</tspan></text><text class="f" transform="translate(83.53 56.29) rotate(-73.7)"><tspan x="0" y="0">r</tspan></text></g></g></svg>